<svg width="112" height="5" viewBox="0 0 112 5" fill="none" xmlns="http://www.w3.org/2000/svg">
<path d="M0 1C3.625 1 3.625 4 7.25 4C10.875 4 10.875 1 14.5 1C18.125 1 18.125 4 21.75 4C25.375 4 25.375 1 29 1" stroke="white" stroke-width="1.75"/>
<path d="M29 1C32.375 1 32.375 4 35.75 4C39.125 4 39.125 1 42.5 1C45.875 1 45.875 4 49.25 4C52.625 4 52.625 1 56 1" stroke="white" stroke-width="1.75"/>
<path d="M56 1C59.625 1 59.625 4 63.25 4C66.875 4 66.875 1 70.5 1C74.125 1 74.125 4 77.75 4C81.375 4 81.375 1 85 1" stroke="white" stroke-width="1.75"/>
<path d="M85 1C88.375 1 88.375 4 91.75 4C95.125 4 95.125 1 98.5 1C101.875 1 101.875 4 105.25 4C108.625 4 108.625 1 112 1" stroke="white" stroke-width="1.75"/>
</svg>
