<svg width="228" height="307" viewBox="0 0 228 307" fill="none" xmlns="http://www.w3.org/2000/svg">
<path d="M217.726 285.266C216.694 286.433 215.527 287.646 214.226 288.813C202.65 299.635 183.089 309.47 169.629 306.416C163.841 305.114 159.668 301.477 157.47 295.953C153.297 285.4 155.002 276.779 162.674 269.638C166.847 265.732 172.365 262.633 177.66 259.625C178.961 258.861 180.262 258.143 181.563 257.379C182.819 256.661 184.076 255.897 185.377 255.179C191.972 251.407 198.792 247.455 202.74 243.773C207.406 239.417 205.881 237.666 204.983 236.633C204.221 235.78 200.228 233.31 180.038 237.8C166.981 240.719 151.951 245.434 140.959 248.937C139.164 249.521 137.459 250.015 135.934 250.509C118.929 255.808 95.4191 260.388 79.7607 252.125C72.941 248.533 68.3197 242.83 65.9866 235.241C63.2498 226.394 65.0444 218.985 71.1912 213.237C82.004 203.133 104.392 200.574 119.243 198.912C120.679 198.732 122.07 198.598 123.371 198.418C124.897 198.239 126.467 198.059 128.082 197.879C142.753 196.173 162.854 193.793 168.058 188.943C169.09 188 168.911 187.461 168.776 187.102C168.597 186.608 166.533 182.028 142.843 177.941C130.011 175.741 113.231 174.124 97.9765 173.63C62.8011 172.463 40.0089 169.229 26.2348 163.392C19.46 160.518 6.94217 151.267 2.27605 138.649C-0.41595 131.419 -0.101888 124.369 3.21824 117.723C5.23724 113.591 7.74977 110.134 10.711 107.394C20.8957 97.9192 36.3298 96.7966 55.3084 104.206C62.5768 107.035 69.5311 110.672 76.2162 114.175C82.4078 117.408 88.2405 120.462 93.8488 122.617C103.226 126.21 114.263 129.578 123.416 131.643C134.812 134.158 139.029 133.754 140.331 133.44C140.061 132.497 138.805 130.386 134.049 126.479C129.114 122.483 121.935 117.723 113.635 112.244C99.5917 102.949 82.1386 91.4079 66.6596 77.4423C45.7967 58.6268 35.1184 42.6404 34.8941 29.8872C34.8043 23.8698 36.9579 18.6607 41.3997 14.3947C41.5343 14.3049 41.6241 14.1702 41.7587 14.0804C53.4689 3.1683 72.8961 5.05433 95.0602 19.2445C115.654 32.4468 132.658 52.7441 137.369 58.6268C138.85 60.5128 140.375 62.3988 141.901 64.3298C149.663 74.0743 157.649 84.1332 164.469 91.3181C174.429 101.781 177.256 101.063 177.57 100.973C177.974 100.793 178.378 100.569 178.736 100.209C184.39 94.9555 183.806 73.0415 179.993 54.8996C176.628 38.9581 177.032 18.1668 188.248 7.70376C191.793 4.38074 196.234 2.27018 201.439 1.41697C212.386 -0.379258 221.315 2.67433 228 10.3981V273.276C227.686 273.635 227.372 274.039 227.058 274.398C223.738 278.35 220.597 282.032 217.726 285.266Z" fill="#F5C2CB"/>
</svg>
